# xmcd
#
# Track frame offsets:
# 150
# 21131
# 27202
# 42603
# 58769
# 71722
# 90764
# 105361
# 120495
#
# Disc length: 1874 seconds
#
# Revision: 0
# Processed by: cddbd v1.4PL0 Copyright (c) Steve Scherf et al.
# Submitted via: Audion 3.0.2 (http://www.panic.com/audion/)
#
DISCID=6b075009
DTITLE=Space Ballerinas - If Goth Was Pink
DYEAR=1900
DGENRE=
TTITLE0=Ballerina Fell...
TTITLE1=Eyeball
TTITLE2=Three Strings
TTITLE3=Strawberry Child
TTITLE4=Castle
TTITLE5=Johnny Spaceship
TTITLE6=Pick Up the Pieces
TTITLE7=Neptune
TTITLE8=Mercury
EXTD=
EXTT0=
EXTT1=
EXTT2=
EXTT3=
EXTT4=
EXTT5=
EXTT6=
EXTT7=
EXTT8=
PLAYORDER=
